<svg width="3" height="10" viewBox="0 0 3 10" fill="none" xmlns="http://www.w3.org/2000/svg">
<path d="M2.4844 3.86896C2.63202 4.04822 2.81584 4.25107 2.90914 4.47436C3.00245 4.69765 3.00106 4.95396 2.99966 5.19612C2.99409 5.94147 2.9927 6.68682 2.9927 7.43217C2.9927 8.11462 2.9927 8.79864 2.9927 9.48109C2.9927 9.76728 2.78659 10 2.53314 10H0.459558C0.206105 10 0 9.76728 0 9.48109V5.18826C0 4.82659 0.103052 4.47436 0.299409 4.18817C0.359291 4.10169 0.424743 4.01835 0.495766 3.93815C0.576537 3.84695 0.6211 3.72429 0.619707 3.59692C0.619707 3.57334 0.619708 3.54975 0.618315 3.52616C0.618315 3.36577 0.616922 3.20538 0.6211 3.04499C0.629456 2.66603 0.648952 2.28392 0.713012 1.91124C0.745042 1.72412 0.809101 1.54171 0.838346 1.35459C0.848094 1.29484 0.850879 1.23194 0.842523 1.17218C0.82999 1.08098 0.799353 1.00079 0.799353 0.906438C0.799353 0.815235 0.818849 0.724033 0.838346 0.635975C0.846701 0.599808 0.853664 0.562069 0.845309 0.525902C0.828598 0.456714 0.740864 0.451996 0.703263 0.393815C0.628063 0.279025 0.700478 0.1548 0.789605 0.0840395C0.836953 0.0463004 0.891265 0.0164235 0.948361 0.00856119C1.02217 -0.000873592 1.09737 0.00227134 1.17118 0.000698873C1.26309 -0.000873591 1.35639 0.000698873 1.4483 0.000698873C1.56389 0.000698873 1.67948 0.000698873 1.79506 0.000698873C1.96775 0.000698873 2.35489 -0.00716341 2.33678 0.305757C2.32843 0.447279 2.20588 0.418974 2.17246 0.521185C2.14739 0.599808 2.20031 0.703591 2.2212 0.777496C2.26715 0.942605 2.2017 1.03853 2.16549 1.19577C2.14182 1.3027 2.19056 1.42221 2.2212 1.52284C2.32286 1.85621 2.36464 2.22102 2.39388 2.57011C2.42591 2.95064 2.43148 3.33275 2.4273 3.71486C2.43009 3.77147 2.44959 3.8265 2.4844 3.86896Z" fill="black"/>
</svg>
